<svg width="108" height="108" viewBox="0 0 108 108" fill="none" xmlns="http://www.w3.org/2000/svg">
<g filter="url(#filter0_d_10380_2487)">
<rect x="4" width="100" height="100" fill="#FFFEFE"/>
<path d="M16.4097 65.7798C17.6735 65.0812 18.1656 66.221 17.3465 66.453C15.5359 66.9659 16.1039 69.4426 17.915 69.9197C19.2146 70.262 22.7825 69.7927 23.6671 69.5702C23.8435 69.4927 25.5683 69.4219 27.3444 69.4036C29.1205 69.3852 31.9478 70.1477 32.7012 70.2579C33.4548 70.3683 34.6838 70.5888 35.4461 70.5979C36.2086 70.6071 37.4601 70.12 37.4827 70.1154C37.5049 70.1108 37.5677 70.0421 37.7159 69.8675C37.8639 69.6928 38.3527 69.3484 38.3885 69.353C38.4245 69.3576 38.4783 69.4817 38.5052 69.7021C38.5321 69.9226 38.4155 70.0788 38.4155 70.0788C38.4155 70.0788 39.1108 69.895 39.1108 70.0051C39.1108 70.1154 38.9269 70.4369 38.9088 70.4691C38.891 70.5014 39.6266 71.0664 39.8104 71.3283C39.9943 71.59 39.9226 71.5762 39.9764 71.8842C40.0302 72.1918 40.5012 72.9727 40.5191 73.0509C40.5372 73.1289 40.5236 73.1426 40.4474 73.207C40.3711 73.2714 40.3846 73.2345 40.2949 73.3219C40.2051 73.4092 39.8822 73.8087 39.5056 73.9926C39.1287 74.1762 39.0659 74.0201 38.7699 73.8455C38.4739 73.671 37.0925 73.8915 36.8323 74.0937C36.6195 74.259 36.1604 74.7074 36.0005 74.8649L35.9442 74.9206C35.9442 74.9206 35.8724 75.0309 35.7829 75.4535C35.6931 75.8761 35.729 76.2986 35.8367 76.997C35.9442 77.6952 37.0655 79.3121 37.2359 79.45C37.4063 79.5877 37.7114 79.7347 37.9266 79.9737C38.1419 80.2125 37.9535 80.3595 37.7202 80.4331C37.4872 80.5065 36.9129 80.3871 36.7335 80.3135C36.5543 80.24 36.4645 79.7256 35.8724 79.303C35.2804 78.8804 34.3475 78.1086 34.204 77.7228C34.0604 77.3368 33.9348 76.2712 33.9348 76.2712C33.9348 76.2712 33.8092 76.5652 33.4145 77.0612C33.0197 77.5573 32.1047 78.3842 32.1047 78.7334C32.1047 79.0825 32.2124 79.6521 32.3381 79.8726C32.4636 80.093 32.6431 80.1114 32.8044 80.1665L32.8865 80.1937C33.0248 80.2401 33.1694 80.3013 33.2889 80.5157C33.4324 80.7729 33.2709 80.8465 33.0019 80.8465C32.7329 80.8465 32.356 80.9751 31.8895 80.7914C31.4231 80.6075 30.5619 79.0458 30.3646 78.6599C30.1673 78.274 30.5978 77.5575 30.7773 77.2266C30.9566 76.8959 31.2079 76.4549 31.2079 76.4549C31.2079 76.4549 29.5574 76.4734 28.6962 76.2529C27.835 76.0323 26.8467 75.959 26.8467 75.959C26.8467 75.959 26.7748 76.3633 26.6314 76.9512C26.4878 77.5393 25.8061 78.2192 25.7342 78.4396C25.6625 78.6601 26.129 79.1194 26.3981 79.4135C26.6671 79.7074 27.2055 79.9096 27.4207 80.0566C27.636 80.2036 27.8871 80.4424 27.7435 80.7364C27.6 81.0305 27.4745 80.7732 27.2234 80.8283C26.9721 80.8835 26.3443 80.9752 25.9138 80.8835C25.4832 80.7915 25.4652 80.2402 24.8911 79.7442C24.317 79.248 23.725 78.6968 23.7788 78.3662C23.8325 78.0353 23.9044 76.547 23.8864 76.4552C23.8685 76.3633 23.1329 76.9697 22.3435 77.3554C21.5542 77.7414 19.9396 78.1366 19.8409 78.403C19.7422 78.6694 19.4193 79.9005 19.4731 80.2679C19.5269 80.6354 19.6256 80.8467 19.7243 81.0396L19.766 81.1214C19.8227 81.2355 19.814 81.2495 19.7243 81.3338C19.6166 81.4348 18.8362 81.3429 18.6658 81.1039C18.4954 80.8652 18.1815 79.4135 18.2981 79.092C18.4146 78.7705 19.0426 76.6573 19.2759 76.4735C19.509 76.2896 20.3523 75.7753 20.8187 74.6177C21.1883 73.7008 21.0737 72.2881 21.2331 71.4846C18.6713 71.4601 15.4208 71.728 15 68.1032C14.8825 67.0915 15.5352 66.2633 16.4097 65.7798ZM64.982 19L87.7412 74.1475C88.8501 76.8318 90.8196 78.1741 93.6498 78.1741H94.0001V80.0561H65.4196V78.1741C70.7302 77.9991 73.3854 76.7443 73.3854 74.41C73.3854 73.7681 73.2686 73.1699 73.0353 72.6156L68.8336 62.5051H48.3064L45.1552 70.5584C44.7467 71.6089 44.5424 72.6301 44.5424 73.6222C44.5424 76.4817 46.8767 77.9991 51.5452 78.1741V80.0561L39.9216 80.0592C40.7367 77.7057 42.5583 73.0728 42.6971 72.6988C42.8762 72.2157 43.1393 71.5498 43.1348 71.0605C43.1303 70.5712 43.2774 69.8454 43.006 68.9214C42.7347 67.9973 42.4119 67.2058 42.3644 66.7041C42.3172 66.2026 42.4692 64.8804 42.5199 64.0361C42.5706 63.1918 42.7978 62.6189 42.9036 62.5115C43.0093 62.404 42.9749 62.3161 43.265 62.2963C43.5551 62.2765 43.7185 62.2168 44.1357 62.2581C44.5527 62.2993 45.0225 62.1629 45.3769 62.1469C45.7312 62.1311 46.1074 62.1571 46.5763 61.8995C47.0453 61.6419 47.1268 61.4146 47.3122 61.2013C47.4977 60.9881 47.7298 60.6147 47.8068 60.4094C47.8837 60.2043 47.9285 60.0762 47.5415 59.9901C47.1544 59.9039 46.5338 59.5957 46.1048 59.5102C45.6758 59.4246 45.1562 59.316 44.9453 59.1193C44.7344 58.9227 44.639 58.6846 44.4882 58.5351C44.3374 58.3856 44.2533 58.3077 43.9114 58.1935C43.5698 58.0795 42.9857 57.7296 42.776 57.6751C42.5661 57.6205 42.2971 57.5609 42.2395 57.4444C42.1817 57.328 41.8377 56.5553 41.6945 56.198C41.5512 55.8409 41.2728 55.2351 41.1655 55.2478C41.0584 55.2609 40.9567 56.2007 40.7326 56.7617C40.5086 57.3227 40.1849 57.8472 40.1724 58.1354C40.16 58.4234 39.881 58.878 39.6622 59.2425C39.4435 59.607 38.7041 60.9811 38.4155 61.9709C38.127 62.9607 37.4066 64.2036 37.0385 64.5712C36.6702 64.9389 34.5901 66.2399 34.0422 66.6161C33.8783 66.7287 33.7512 66.8172 33.637 66.894L53.2884 19H64.982ZM58.2417 36.8572L49.6632 59.0038H67.3892L58.2417 36.8572Z" fill="#59443F"/>
</g>
<defs>
<filter id="filter0_d_10380_2487" x="0" y="0" width="108" height="108" filterUnits="userSpaceOnUse" color-interpolation-filters="sRGB">
<feFlood flood-opacity="0" result="BackgroundImageFix"/>
<feColorMatrix in="SourceAlpha" type="matrix" values="0 0 0 0 0 0 0 0 0 0 0 0 0 0 0 0 0 0 127 0" result="hardAlpha"/>
<feOffset dy="4"/>
<feGaussianBlur stdDeviation="2"/>
<feComposite in2="hardAlpha" operator="out"/>
<feColorMatrix type="matrix" values="0 0 0 0 0 0 0 0 0 0 0 0 0 0 0 0 0 0 0.25 0"/>
<feBlend mode="normal" in2="BackgroundImageFix" result="effect1_dropShadow_10380_2487"/>
<feBlend mode="normal" in="SourceGraphic" in2="effect1_dropShadow_10380_2487" result="shape"/>
</filter>
</defs>
</svg>
